# xmcd
#
# Track frame offsets:
#	150
#	14421
#	25166
#	36947
#	48421
#	60165
#	71923
#	84120
#	97700
#	109322
#	122265
#	133564
#	147058
#	157248
#	169854
#	183116
#	195501
#	210154
#	219580
#	235121
#
# Disc length: 3310 seconds
#
# Revision: 1
# Processed by: cddbd v1.5.2PL0 Copyright (c) Steve Scherf et al.
# Submitted via: audiograbber 1.83.01
#
DISCID=010cec14
DTITLE=Various Artist - American Roadsongs CD8 - T For Texas
DYEAR=1900
DGENRE=Country
TTITLE0=Milton Brown - The Eyes Of Texas
TTITLE1=Gene O'Quinn - Texas Boogie
TTITLE2=Patys Montana - Deep In The Heart Of Texas
TTITLE3=Rocky Mountain Boys - Down Texas Way
TTITLE4=Light Crust Doughboys - Texas Song Of Pride
TTITLE5=Dave Red River - Yellow Rose Of Texas
TTITLE6=Paul Howard - Texas Boogie
TTITLE7=Ernest Tubb - There's A Little Bit Of Everything In Texas
TTITLE8=Joan Brooks - Heading Back To Houston
TTITLE9=Lloyd Glenn - Texas Man
TTITLE10=Jim Boyd - Waxahachie
TTITLE11=Tex Williams - I God Texas In My Soul
TTITLE12=Sheb Wooley - Goodbye Texas Hallo Tennessee
TTITLE13=Moon Mullican - I Left My Heart In Texas
TTITLE14=Ozie Waters - I Can't Get Out Of Texas In My Dreams
TTITLE15=Andy Parker - Texas Belle
TTITLE16=Del Sharbutt - Never Ask A Man If He's From Texas
TTITLE17=Steve Schulte - Texas Blues
TTITLE18=Jimmy Rodgers - T For Texas
TTITLE19=Tune Wranglers - El Rancho Grande
EXTD=
EXTT0=
EXTT1=
EXTT2=
EXTT3=
EXTT4=
EXTT5=
EXTT6=
EXTT7=
EXTT8=
EXTT9=
EXTT10=
EXTT11=
EXTT12=
EXTT13=
EXTT14=
EXTT15=
EXTT16=
EXTT17=
EXTT18=
EXTT19=
PLAYORDER=
